<?xml version="1.0" encoding="UTF-8"?>
<svg width="22px" height="22px" viewBox="0 0 22 22" version="1.1" xmlns="http://www.w3.org/2000/svg" xmlns:xlink="http://www.w3.org/1999/xlink">
    <!-- Generator: sketchtool 49.1 (51147) - http://www.bohemiancoding.com/sketch -->
    <title>107C8D5B-D367-4602-8622-25408B61A265</title>
    <desc>Created with sketchtool.</desc>
    <defs></defs>
    <g id="Page-1" stroke="none" stroke-width="1" fill="none" fill-rule="evenodd">
        <g id="Layout_02" transform="translate(-1188.000000, -76.000000)" fill="#FFFFFF" fill-rule="nonzero">
            <g id="social" transform="translate(988.000000, 76.000000)">
                <path d="M211,1.98275 C213.937,1.98275 214.285333,1.99375 215.445833,2.04691667 C218.426833,2.18258333 219.81925,3.597 219.954917,6.556 C220.008083,7.71558333 220.018167,8.06391667 220.018167,11.0009167 C220.018167,13.9388333 220.007167,14.28625 219.954917,15.4458333 C219.818333,18.4020833 218.429583,19.81925 215.445833,19.9549167 C214.285333,20.0080833 213.938833,20.0190833 211,20.0190833 C208.063,20.0190833 207.714667,20.0080833 206.555083,19.9549167 C203.56675,19.8183333 202.181667,18.3975 202.046,15.4449167 C201.992833,14.2853333 201.981833,13.9379167 201.981833,11 C201.981833,8.063 201.99375,7.71558333 202.046,6.55508333 C202.182583,3.597 203.571333,2.18166667 206.555083,2.046 C207.715583,1.99375 208.063,1.98275 211,1.98275 Z M211,4.45245692e-16 C208.012583,4.45245692e-16 207.638583,0.0128333333 206.46525,0.066 C202.470417,0.249333333 200.25025,2.46583333 200.066917,6.46433333 C200.012833,7.63858333 200,8.01258333 200,11 C200,13.9874167 200.012833,14.3623333 200.066,15.5356667 C200.249333,19.5305 202.465833,21.7506667 206.464333,21.934 C207.638583,21.9871667 208.012583,22 211,22 C213.987417,22 214.362333,21.9871667 215.535667,21.934 C219.526833,21.7506667 221.7525,19.5341667 221.933083,15.5356667 C221.987167,14.3623333 222,13.9874167 222,11 C222,8.01258333 221.987167,7.63858333 221.934,6.46525 C221.754333,2.47408333 219.535083,0.25025 215.536583,0.0669166667 C214.362333,0.0128333333 213.987417,0 211,4.45245692e-16 Z M211,5.3515 C207.880583,5.3515 205.3515,7.88058333 205.3515,11 C205.3515,14.1194167 207.880583,16.6494167 211,16.6494167 C214.119417,16.6494167 216.6485,14.1203333 216.6485,11 C216.6485,7.88058333 214.119417,5.3515 211,5.3515 Z M211,14.6666667 C208.975083,14.6666667 207.333333,13.0258333 207.333333,11 C207.333333,8.97508333 208.975083,7.33333333 211,7.33333333 C213.024917,7.33333333 214.666667,8.97508333 214.666667,11 C214.666667,13.0258333 213.024917,14.6666667 211,14.6666667 Z M216.872167,3.80875 C216.1425,3.80875 215.55125,4.4 215.55125,5.12875 C215.55125,5.8575 216.1425,6.44875 216.872167,6.44875 C217.600917,6.44875 218.19125,5.8575 218.19125,5.12875 C218.19125,4.4 217.600917,3.80875 216.872167,3.80875 Z" id="instagram_icon"></path>
            </g>
        </g>
    </g>
</svg>