<?xml version="1.0" encoding="UTF-8"?>
<svg width="23px" height="22px" viewBox="0 0 23 22" version="1.1" xmlns="http://www.w3.org/2000/svg" xmlns:xlink="http://www.w3.org/1999/xlink">
    <!-- Generator: sketchtool 49.1 (51147) - http://www.bohemiancoding.com/sketch -->
    <title>0C9608BE-E3C5-44CD-A37C-54A1FAE2C65D</title>
    <desc>Created with sketchtool.</desc>
    <defs></defs>
    <g id="Page-1" stroke="none" stroke-width="1" fill="none" fill-rule="evenodd">
        <g id="Layout_02" transform="translate(-660.000000, -3549.000000)" fill="#FFFFFF">
            <path d="M673.170746,3558.42442 C673.453347,3558.08819 673.703273,3557.76057 673.983968,3557.46261 C674.70741,3556.69475 675.611731,3556.27723 676.640997,3556.14029 C677.641947,3556.00713 678.626524,3556.09041 679.5796,3556.44778 C680.702858,3556.869 681.545713,3557.62322 682.121903,3558.67973 C682.789411,3559.90364 682.991498,3561.24016 682.995601,3562.61444 C683.00366,3565.3585 682.998238,3568.1026 682.997945,3570.8467 C682.997945,3570.89483 682.992231,3570.94293 682.988605,3571 L678.205573,3571 L678.205573,3570.77217 C678.205573,3568.2938 678.205353,3565.8155 678.205683,3563.33714 C678.205793,3562.69187 678.162093,3562.0526 677.946526,3561.43789 C677.572057,3560.36976 676.715832,3559.8449 675.602867,3559.92029 C674.449975,3559.99838 673.581075,3560.83515 673.290014,3561.83426 C673.181992,3562.20512 673.176973,3562.61548 673.175545,3563.00799 C673.166241,3565.58519 673.170746,3568.16241 673.170746,3570.73964 L673.170746,3570.99533 L668.392843,3570.99533 L668.392843,3556.42352 L668.584637,3556.42352 C670.043682,3556.42352 671.502727,3556.42634 672.961736,3556.4197 C673.131772,3556.41893 673.177962,3556.46832 673.174592,3556.63782 C673.164153,3557.1691 673.170746,3557.70075 673.170746,3558.23229 L673.170746,3558.42442 Z M664.783268,3570.65992 L660,3570.65992 C660.000016,3570.57448 660.000016,3570.50169 660.000016,3570.42893 C660.000016,3565.72762 659.99998,3561.02642 660.000016,3556.32515 C660.000016,3556.08463 660.000309,3556.0843 660.238221,3556.0843 C661.678365,3556.08419 663.118546,3556.08708 664.558653,3556.08044 C664.728396,3556.07963 664.787444,3556.1153 664.787261,3556.30049 C664.782206,3561.02027 664.783268,3565.74001 664.783268,3570.45982 L664.783268,3570.65992 Z M662.684352,3554.05255 C661.740288,3554.03579 660.933256,3553.72908 660.400656,3552.89287 C659.506775,3551.48941 660.1741,3549.64241 661.752485,3549.16386 C662.672264,3548.88496 663.575083,3548.93825 664.380833,3549.50928 C665.191857,3550.0841 665.491234,3550.92101 665.369182,3551.89224 C665.247791,3552.85816 664.701088,3553.52464 663.795522,3553.85156 C663.444644,3553.97823 663.063399,3554.01873 662.695964,3554.09849 C662.692081,3554.08318 662.688198,3554.06786 662.684352,3554.05255 Z" id="linkedin_icon"></path>
        </g>
    </g>
</svg>