<?xml version="1.0" encoding="UTF-8"?>
<svg width="61px" height="39px" viewBox="0 0 61 39" version="1.1" xmlns="http://www.w3.org/2000/svg" xmlns:xlink="http://www.w3.org/1999/xlink">
    <!-- Generator: sketchtool 49.1 (51147) - http://www.bohemiancoding.com/sketch -->
    <title>02C100C7-0893-40B2-AF79-3518BF000A7C</title>
    <desc>Created with sketchtool.</desc>
    <defs></defs>
    <g id="Page-1" stroke="none" stroke-width="1" fill="none" fill-rule="evenodd">
        <g id="Layout_02" transform="translate(-216.000000, -2586.000000)">
            <g id="logo" transform="translate(216.000000, 2586.000000)">
                <polygon id="Path-3-Copy" fill="#FFFFFF" points="52.3736601 11.4705882 61 11.4705882 51.2112455 25.2352941 61 39 52.3736601 39 42.5849057 25.2352941"></polygon>
                <polygon id="Path-3" fill="#FFFFFF" points="42.0036984 11.4705882 51.7924528 25.2352941 42.0036984 39 33.3773585 39 43.166113 25.2352941 33.3773585 11.4705882"></polygon>
                <polygon id="Path-4" fill="#6C1DE3" style="mix-blend-mode: multiply;" opacity="0.422327899" points="51.7924528 25.2352941 49.490566 34.4117647 47.1886792 31.4919786"></polygon>
                <polygon id="Fill-1" fill="#FFFFFF" points="0 0 0 7.55427967 1.83531056 8.19657022 1.83531056 38.1612903 10.7663827 38.1612903 10.7663827 0"></polygon>
                <path d="M25.8660625,2.51612903 L18.0794854,2.51612903 L18.0794854,11.2469185 L14.2116251,11.2469185 L14.2116251,16.3118926 L18.0794854,16.3118926 L18.0794854,29.8922503 C18.0794854,32.5877604 18.1303418,34.5802642 19.1992509,36.2516176 C20.8784367,38.8384456 23.8308818,39 26.5281203,39 C27.9530241,39 28.9710768,38.8384456 30.6502626,38.5691884 L30.6502626,32.1021182 L27.8503867,32.2098211 C25.7652743,32.2098211 25.7652743,30.7538736 25.8142814,29.0306271 L25.8142814,16.3657441 L31.0071821,16.3657441 L31.0071821,11.30077 L25.8660625,11.30077 L25.8660625,2.51612903 Z" id="Fill-4" fill="#FFFFFF"></path>
            </g>
        </g>
    </g>
</svg>