<?xml version="1.0" encoding="UTF-8"?>
<svg width="21px" height="17px" viewBox="0 0 21 17" version="1.1" xmlns="http://www.w3.org/2000/svg" xmlns:xlink="http://www.w3.org/1999/xlink">
    <!-- Generator: sketchtool 49.1 (51147) - http://www.bohemiancoding.com/sketch -->
    <title>CCFF0384-1B99-406B-8DEA-D247C5394805</title>
    <desc>Created with sketchtool.</desc>
    <defs></defs>
    <g id="Page-1" stroke="none" stroke-width="1" fill="none" fill-rule="evenodd">
        <g id="Layout_02" transform="translate(-590.000000, -3554.000000)" fill="#FFFFFF">
            <path d="M611,3556.00965 C610.215889,3556.35607 609.382905,3556.5837 608.529412,3556.68479 C609.43182,3556.14452 610.104562,3555.30118 610.423118,3554.31087 C609.579115,3554.80999 608.653934,3555.16243 607.688176,3555.35272 C606.876563,3554.48828 605.733623,3553.99766 604.536941,3554.00001 C603.386771,3554.00707 602.286584,3554.46307 601.478505,3555.26766 C600.670425,3556.07224 600.220676,3557.15947 600.228235,3558.29008 C600.227883,3558.61938 600.265176,3558.94768 600.339412,3559.26879 C596.863797,3559.09076 593.631889,3557.45898 591.460118,3554.78565 C590.316425,3556.74438 590.896763,3559.23826 592.793,3560.51343 C592.107852,3560.49217 591.438152,3560.30801 590.841235,3559.97672 L590.841235,3560.03136 C590.832232,3562.06304 592.277397,3563.82101 594.300059,3564.23886 C593.665971,3564.4104 593.000157,3564.43575 592.354471,3564.31293 C592.907755,3566.05138 594.526521,3567.24993 596.379059,3567.29279 C594.858356,3568.48296 592.9716,3569.1303 591.027765,3569.12879 C590.690408,3569.24158 590.321555,3569.22023 590,3569.06929 C591.963041,3570.32937 594.256895,3571.00025 596.601412,3571 C599.880308,3570.99961 603.022451,3569.70832 605.325961,3567.41455 C607.629471,3565.12078 608.902423,3562.01566 608.860471,3558.79279 C608.860471,3558.60579 608.860471,3558.42122 608.848118,3558.23665 C609.694792,3557.62642 610.423568,3556.8722 611,3556.00965 L611,3556.00965 Z" id="twitter_icon"></path>
        </g>
    </g>
</svg>